<svg width="40" height="40" viewBox="0 0 40 40" fill="none" xmlns="http://www.w3.org/2000/svg">
<path d="M20 6.08301C19.2222 6.08301 18.5486 5.80523 17.9792 5.24967C17.4097 4.69412 17.125 4.01356 17.125 3.20801C17.125 2.43023 17.4028 1.75662 17.9583 1.18717C18.5139 0.61773 19.1944 0.333008 20 0.333008C20.7778 0.333008 21.4514 0.61773 22.0208 1.18717C22.5903 1.75662 22.875 2.43023 22.875 3.20801C22.875 4.01356 22.5972 4.69412 22.0417 5.24967C21.4861 5.80523 20.8056 6.08301 20 6.08301V6.08301ZM16.1667 31.583V10.7497C14.4167 10.6108 12.6806 10.4163 10.9583 10.1663C9.23611 9.91634 7.625 9.61079 6.125 9.24967L6.58333 7.33301C8.77778 7.88856 10.9792 8.2844 13.1875 8.52051C15.3958 8.75662 17.6667 8.87467 20 8.87467C22.3333 8.87467 24.6042 8.75662 26.8125 8.52051C29.0208 8.2844 31.2222 7.88856 33.4167 7.33301L33.875 9.24967C32.375 9.61079 30.7708 9.91634 29.0625 10.1663C27.3542 10.4163 25.6111 10.6108 23.8333 10.7497V31.583H21.9583V21.4163H18.0417V31.583H16.1667ZM13.25 39.7913C12.8333 39.7913 12.4931 39.6594 12.2292 39.3955C11.9653 39.1316 11.8333 38.7913 11.8333 38.3747C11.8333 37.9858 11.9653 37.6524 12.2292 37.3747C12.4931 37.0969 12.8333 36.958 13.25 36.958C13.6389 36.958 13.9722 37.0969 14.25 37.3747C14.5278 37.6524 14.6667 37.9997 14.6667 38.4163C14.6667 38.8052 14.5278 39.1316 14.25 39.3955C13.9722 39.6594 13.6389 39.7913 13.25 39.7913V39.7913ZM20.0417 39.7913C19.625 39.7913 19.2847 39.6594 19.0208 39.3955C18.7569 39.1316 18.625 38.7913 18.625 38.3747C18.625 37.9858 18.7569 37.6524 19.0208 37.3747C19.2847 37.0969 19.625 36.958 20.0417 36.958C20.4583 36.958 20.7986 37.0969 21.0625 37.3747C21.3264 37.6524 21.4583 37.9997 21.4583 38.4163C21.4583 38.8052 21.3264 39.1316 21.0625 39.3955C20.7986 39.6594 20.4583 39.7913 20.0417 39.7913V39.7913ZM26.8333 39.7913C26.4167 39.7913 26.0764 39.6594 25.8125 39.3955C25.5486 39.1316 25.4167 38.7913 25.4167 38.3747C25.4167 37.9858 25.5486 37.6524 25.8125 37.3747C26.0764 37.0969 26.4167 36.958 26.8333 36.958C27.25 36.958 27.5903 37.0969 27.8542 37.3747C28.1181 37.6524 28.25 37.9997 28.25 38.4163C28.25 38.8052 28.1181 39.1316 27.8542 39.3955C27.5903 39.6594 27.25 39.7913 26.8333 39.7913V39.7913Z" fill="white"/>
</svg>
