<svg width="41" height="40" viewBox="0 0 41 40" fill="none" xmlns="http://www.w3.org/2000/svg">
<path d="M7.00072 30.8337C6.11183 30.8337 5.42433 30.535 4.93822 29.9378C4.45211 29.3406 4.2785 28.5559 4.41739 27.5837L6.37572 13.917C6.57017 12.6114 7.17433 11.4934 8.18822 10.5628C9.20211 9.63227 10.3757 9.16699 11.7091 9.16699H29.3341C30.6396 9.16699 31.8063 9.63227 32.8341 10.5628C33.8618 11.4934 34.4729 12.6114 34.6674 13.917L36.5841 27.5837C36.7229 28.5559 36.5493 29.3406 36.0632 29.9378C35.5771 30.535 34.9035 30.8337 34.0424 30.8337C33.5146 30.8337 33.0702 30.7503 32.7091 30.5837C32.3479 30.417 32.0285 30.2087 31.7507 29.9587L27.3341 25.542H13.6674L9.25072 29.9587C8.97295 30.2087 8.6535 30.417 8.29239 30.5837C7.93128 30.7503 7.50072 30.8337 7.00072 30.8337ZM7.70906 28.7503L12.8341 23.6253H28.1674L33.2924 28.7503C33.4035 28.8614 33.6396 28.9725 34.0007 29.0837C34.2507 29.0837 34.4452 28.9725 34.5841 28.7503C34.7229 28.5281 34.7646 28.2781 34.7091 28.0003L32.7507 14.2087C32.6118 13.292 32.2091 12.535 31.5424 11.9378C30.8757 11.3406 30.1396 11.042 29.3341 11.042H11.6674C10.8618 11.042 10.1257 11.3406 9.45906 11.9378C8.79239 12.535 8.38961 13.292 8.25072 14.2087L6.29239 28.0003C6.23683 28.2781 6.2785 28.5281 6.41739 28.7503C6.55628 28.9725 6.76461 29.0837 7.04239 29.0837C7.20906 29.0837 7.43128 28.9725 7.70906 28.7503ZM29.4591 21.5003C29.8479 21.5003 30.1952 21.3475 30.5007 21.042C30.8063 20.7364 30.9591 20.3892 30.9591 20.0003C30.9591 19.6114 30.8063 19.2642 30.5007 18.9587C30.1952 18.6531 29.8479 18.5003 29.4591 18.5003C29.0424 18.5003 28.6813 18.6531 28.3757 18.9587C28.0702 19.2642 27.9174 19.6114 27.9174 20.0003C27.9174 20.3892 28.0702 20.7364 28.3757 21.042C28.6813 21.3475 29.0424 21.5003 29.4591 21.5003V21.5003ZM25.9591 16.2087C26.3479 16.2087 26.6952 16.0559 27.0007 15.7503C27.3063 15.4448 27.4591 15.0975 27.4591 14.7087C27.4591 14.292 27.3063 13.9378 27.0007 13.6462C26.6952 13.3545 26.3479 13.2087 25.9591 13.2087C25.5702 13.2087 25.2229 13.3545 24.9174 13.6462C24.6118 13.9378 24.4591 14.292 24.4591 14.7087C24.4591 15.0975 24.6118 15.4448 24.9174 15.7503C25.2229 16.0559 25.5702 16.2087 25.9591 16.2087ZM13.3757 21.2503H15.0424V18.2087H18.1257V16.5003H15.0424V13.417H13.3757V16.5003H10.2924V18.2087H13.3757V21.2503Z" fill="white"/>
</svg>
