<svg width="40" height="40" viewBox="0 0 40 40" fill="none" xmlns="http://www.w3.org/2000/svg">
<path d="M32.0413 36.125C31.8191 35.9028 31.708 35.6597 31.708 35.3958C31.708 35.1319 31.8052 34.8889 31.9997 34.6667L36.3747 30.2917L31.9997 25.9167C31.8052 25.7222 31.708 25.4931 31.708 25.2292C31.708 24.9653 31.8052 24.7222 31.9997 24.5C32.2219 24.3056 32.4719 24.2083 32.7497 24.2083C33.0274 24.2083 33.2636 24.3056 33.458 24.5L38.458 29.4583C38.5691 29.5972 38.6594 29.7361 38.7288 29.875C38.7983 30.0139 38.833 30.1667 38.833 30.3333C38.833 30.4722 38.7983 30.6111 38.7288 30.75C38.6594 30.8889 38.5691 31.0278 38.458 31.1667L33.458 36.125C33.2358 36.3472 32.9927 36.4583 32.7288 36.4583C32.465 36.4583 32.2358 36.3472 32.0413 36.125ZM15.1663 34.2083C14.833 34.2083 14.5483 34.0903 14.3122 33.8542C14.0761 33.6181 13.958 33.3333 13.958 33V30.8333H6.45801C5.79134 30.8333 5.22884 30.5972 4.77051 30.125C4.31217 29.6528 4.08301 29.0833 4.08301 28.4167V8.25C4.08301 7.58333 4.31217 7.02083 4.77051 6.5625C5.22884 6.10417 5.79134 5.875 6.45801 5.875H33.333C33.9997 5.875 34.5691 6.10417 35.0413 6.5625C35.5136 7.02083 35.7497 7.58333 35.7497 8.25V18.9583C35.7497 19.2361 35.6594 19.4653 35.4788 19.6458C35.2983 19.8264 35.0691 19.9167 34.7913 19.9167C34.5136 19.9167 34.2844 19.8264 34.1038 19.6458C33.9233 19.4653 33.833 19.2361 33.833 18.9583V8.25C33.833 8.08333 33.7844 7.95139 33.6872 7.85417C33.5899 7.75694 33.4719 7.70833 33.333 7.70833H6.45801C6.31912 7.70833 6.20106 7.75694 6.10384 7.85417C6.00662 7.95139 5.95801 8.08333 5.95801 8.25V28.4167C5.95801 28.5833 6.00662 28.7153 6.10384 28.8125C6.20106 28.9097 6.31912 28.9583 6.45801 28.9583H27.458C27.7358 28.9583 27.965 29.0486 28.1455 29.2292C28.3261 29.4097 28.4163 29.6389 28.4163 29.9167C28.4163 30.1667 28.3261 30.3819 28.1455 30.5625C27.965 30.7431 27.7358 30.8333 27.458 30.8333H25.4163V33C25.4163 33.3333 25.2983 33.6181 25.0622 33.8542C24.8261 34.0903 24.5413 34.2083 24.208 34.2083H15.1663ZM19.8747 24.2917C20.1525 24.2917 20.3816 24.2014 20.5622 24.0208C20.7427 23.8403 20.833 23.625 20.833 23.375V19H25.1663C25.4441 19 25.6733 18.9097 25.8538 18.7292C26.0344 18.5486 26.1247 18.3194 26.1247 18.0417C26.1247 17.7639 26.0344 17.5417 25.8538 17.375C25.6733 17.2083 25.4441 17.125 25.1663 17.125H20.833V12.75C20.833 12.4722 20.7427 12.2431 20.5622 12.0625C20.3816 11.8819 20.1525 11.7917 19.8747 11.7917C19.5969 11.7917 19.3677 11.8819 19.1872 12.0625C19.0066 12.2431 18.9163 12.4722 18.9163 12.75V17.125H14.583C14.3052 17.125 14.0761 17.2153 13.8955 17.3958C13.715 17.5764 13.6247 17.8056 13.6247 18.0833C13.6247 18.3333 13.715 18.5486 13.8955 18.7292C14.0761 18.9097 14.3052 19 14.583 19H18.9163V23.375C18.9163 23.625 19.0136 23.8403 19.208 24.0208C19.4025 24.2014 19.6247 24.2917 19.8747 24.2917V24.2917Z" fill="white"/>
</svg>
