<svg width="40" height="40" viewBox="0 0 40 40" fill="none" xmlns="http://www.w3.org/2000/svg">
<path d="M30.0013 9.62533C29.1957 9.62533 28.5152 9.34755 27.9596 8.79199C27.4041 8.23644 27.1263 7.55588 27.1263 6.75033C27.1263 5.97255 27.4041 5.30588 27.9596 4.75033C28.5152 4.19477 29.1957 3.91699 30.0013 3.91699C30.8069 3.91699 31.4874 4.19477 32.043 4.75033C32.5985 5.30588 32.8763 5.97255 32.8763 6.75033C32.8763 7.55588 32.5985 8.23644 32.043 8.79199C31.4874 9.34755 30.8069 9.62533 30.0013 9.62533ZM27.5013 36.2503V22.6253C27.5013 21.792 27.3069 21.035 26.918 20.3545C26.5291 19.6739 25.918 19.167 25.0846 18.8337L26.8763 13.8753C27.0985 13.2364 27.5013 12.7225 28.0846 12.3337C28.668 11.9448 29.3069 11.7503 30.0013 11.7503C30.6957 11.7503 31.3346 11.9448 31.918 12.3337C32.5013 12.7225 32.9041 13.2364 33.1263 13.8753L37.5013 25.8337H32.918V36.2503H27.5013ZM20.668 19.0837C20.0291 19.0837 19.4805 18.8614 19.0221 18.417C18.5638 17.9725 18.3346 17.417 18.3346 16.7503C18.3346 16.1114 18.5638 15.5628 19.0221 15.1045C19.4805 14.6462 20.043 14.417 20.7096 14.417C21.3485 14.417 21.8971 14.6462 22.3555 15.1045C22.8138 15.5628 23.043 16.1114 23.043 16.7503C23.043 17.417 22.8138 17.9725 22.3555 18.417C21.8971 18.8614 21.3346 19.0837 20.668 19.0837ZM9.16797 9.62533C8.36241 9.62533 7.68186 9.34755 7.1263 8.79199C6.57075 8.23644 6.29297 7.55588 6.29297 6.75033C6.29297 5.97255 6.57075 5.30588 7.1263 4.75033C7.68186 4.19477 8.36241 3.91699 9.16797 3.91699C9.97352 3.91699 10.6541 4.19477 11.2096 4.75033C11.7652 5.30588 12.043 5.97255 12.043 6.75033C12.043 7.55588 11.7652 8.23644 11.2096 8.79199C10.6541 9.34755 9.97352 9.62533 9.16797 9.62533ZM6.33464 36.2503V24.6253H3.41797V14.417C3.41797 13.7781 3.65408 13.2156 4.1263 12.7295C4.59852 12.2434 5.15408 12.0003 5.79297 12.0003H12.543C13.1819 12.0003 13.7374 12.2434 14.2096 12.7295C14.6819 13.2156 14.918 13.7781 14.918 14.417V24.6253H12.0013V36.2503H6.33464ZM18.543 36.2503V29.7087H16.5846V22.6253C16.5846 22.1253 16.7582 21.7017 17.1055 21.3545C17.4527 21.0073 17.8763 20.8337 18.3763 20.8337H23.0013C23.5013 20.8337 23.9249 21.0073 24.2721 21.3545C24.6194 21.7017 24.793 22.1253 24.793 22.6253V29.7087H22.793V36.2503H18.543Z" fill="white"/>
</svg>
