<svg width="40" height="40" viewBox="0 0 40 40" fill="none" xmlns="http://www.w3.org/2000/svg">
<path d="M8.70703 27.9583C7.09592 26.375 5.90148 24.5972 5.1237 22.625C4.34592 20.6528 3.95703 18.6667 3.95703 16.6667C3.95703 14.6667 4.34592 12.6806 5.1237 10.7083C5.90148 8.73611 7.09592 6.95833 8.70703 5.375L9.8737 6.54167C8.45703 7.90278 7.39453 9.49306 6.6862 11.3125C5.97786 13.1319 5.6237 14.9167 5.6237 16.6667C5.6237 18.4167 5.97786 20.2014 6.6862 22.0208C7.39453 23.8403 8.45703 25.4306 9.8737 26.7917L8.70703 27.9583ZM12.4987 24.1667C11.4709 23.1667 10.707 21.9861 10.207 20.625C9.70703 19.2639 9.45703 17.9444 9.45703 16.6667C9.45703 15.3889 9.70703 14.0694 10.207 12.7083C10.707 11.3472 11.4709 10.1667 12.4987 9.16667L13.6654 10.3333C12.8598 11.1389 12.2348 12.125 11.7904 13.2917C11.3459 14.4583 11.1237 15.5833 11.1237 16.6667C11.1237 17.6667 11.3529 18.7569 11.8112 19.9375C12.2695 21.1181 12.8876 22.1389 13.6654 23L12.4987 24.1667ZM12.9987 35.2917L18.1654 19.5833C17.6654 19.2778 17.2765 18.8681 16.9987 18.3542C16.7209 17.8403 16.582 17.2778 16.582 16.6667C16.582 15.7222 16.9154 14.9167 17.582 14.25C18.2487 13.5833 19.0543 13.25 19.9987 13.25C20.9431 13.25 21.7487 13.5833 22.4154 14.25C23.082 14.9167 23.4154 15.7222 23.4154 16.6667C23.4154 17.2778 23.2765 17.8333 22.9987 18.3333C22.7209 18.8333 22.332 19.25 21.832 19.5833L26.9987 35.2917H25.1237L23.957 31.6667H16.082L14.9154 35.2917H12.9987ZM16.707 29.75H23.2904L19.9987 19.7083L16.707 29.75ZM27.4987 24.1667L26.332 23C27.1376 22.1944 27.7626 21.2083 28.207 20.0417C28.6515 18.875 28.8737 17.75 28.8737 16.6667C28.8737 15.6944 28.6445 14.6111 28.1862 13.4167C27.7279 12.2222 27.1098 11.1944 26.332 10.3333L27.4987 9.16667C28.4987 10.1667 29.2556 11.3542 29.7695 12.7292C30.2834 14.1042 30.5404 15.4167 30.5404 16.6667C30.5404 17.9167 30.2904 19.2292 29.7904 20.6042C29.2904 21.9792 28.5265 23.1667 27.4987 24.1667ZM31.2904 27.9583L30.1237 26.7917C31.5126 25.4306 32.5681 23.8403 33.2904 22.0208C34.0126 20.2014 34.3737 18.4167 34.3737 16.6667C34.3737 14.9167 34.0126 13.1319 33.2904 11.3125C32.5681 9.49306 31.5126 7.90278 30.1237 6.54167L31.2904 5.375C32.9015 6.95833 34.0959 8.73611 34.8737 10.7083C35.6515 12.6806 36.0404 14.6667 36.0404 16.6667C36.0404 18.6667 35.6723 20.6528 34.9362 22.625C34.2001 24.5972 32.9848 26.375 31.2904 27.9583Z" fill="#fff"/>
</svg>
