<svg width="40" height="40" viewBox="0 0 40 40" fill="none" xmlns="http://www.w3.org/2000/svg">
  <path d="M20 28C21.1046 28 22 28.8954 22 30C22 31.1046 21.1046 32 20 32C18.8954 32 18 31.1046 18 30C18 28.8954 18.8954 28 20 28Z" fill="currentColor"/>
  <path d="M20 24C22.7614 24 25 26.2386 25 29C25 31.7614 22.7614 34 20 34C17.2386 34 15 31.7614 15 29C15 26.2386 17.2386 24 20 24Z" stroke="currentColor" stroke-width="2" fill="none"/>
  <path d="M20 20C25.5228 20 30 24.4772 30 30C30 35.5228 25.5228 40 20 40C14.4772 40 10 35.5228 10 30C10 24.4772 14.4772 20 20 20Z" stroke="currentColor" stroke-width="2" fill="none"/>
  <path d="M20 16C28.2843 16 35 22.7157 35 31C35 39.2843 28.2843 46 20 46C11.7157 46 5 39.2843 5 31C5 22.7157 11.7157 16 20 16Z" stroke="currentColor" stroke-width="2" fill="none"/>
</svg> 