<svg width="41" height="40" viewBox="0 0 41 40" fill="none" xmlns="http://www.w3.org/2000/svg">
<path d="M9.375 34.9997C8.48611 34.9997 7.72222 34.6802 7.08333 34.0413C6.44444 33.4025 6.125 32.6386 6.125 31.7497C6.125 30.8608 6.44444 30.0969 7.08333 29.458C7.72222 28.8191 8.48611 28.4997 9.375 28.4997C10.2639 28.4997 11.0278 28.8191 11.6667 29.458C12.3056 30.0969 12.625 30.8608 12.625 31.7497C12.625 32.6386 12.3056 33.4025 11.6667 34.0413C11.0278 34.6802 10.2639 34.9997 9.375 34.9997ZM30.375 34.9997C30.375 31.6663 29.7431 28.5275 28.4792 25.583C27.2153 22.6386 25.4861 20.0691 23.2917 17.8747C21.0972 15.6802 18.5278 13.9441 15.5833 12.6663C12.6389 11.3886 9.48611 10.7497 6.125 10.7497V7.95801C9.875 7.95801 13.3889 8.66634 16.6667 10.083C19.9444 11.4997 22.8056 13.4372 25.25 15.8955C27.6944 18.3538 29.6319 21.215 31.0625 24.4788C32.4931 27.7427 33.2083 31.2497 33.2083 34.9997H30.375ZM20.4583 34.9997C20.4583 30.8052 19.125 27.333 16.4583 24.583C13.7917 21.833 10.3472 20.458 6.125 20.458V17.6247C8.59722 17.6247 10.8819 18.0691 12.9792 18.958C15.0764 19.8469 16.8819 21.0691 18.3958 22.6247C19.9097 24.1802 21.0972 26.0136 21.9583 28.1247C22.8194 30.2358 23.25 32.5275 23.25 34.9997H20.4583Z" fill="white"/>
</svg>
