<svg width="40" height="40" viewBox="0 0 40 40" fill="none" xmlns="http://www.w3.org/2000/svg">
<path d="M19.8747 5.83203C23.8469 5.83203 27.2149 7.20009 29.9788 9.9362C32.7427 12.6723 34.1247 15.9987 34.1247 19.9154V20.457H32.2497V19.832C32.2497 16.4431 31.0413 13.5751 28.6247 11.2279C26.208 8.88064 23.2913 7.70703 19.8747 7.70703C18.0691 7.70703 16.3747 8.10286 14.7913 8.89453C13.208 9.6862 11.8191 10.7487 10.6247 12.082H13.8747C14.1525 12.082 14.3816 12.1654 14.5622 12.332C14.7427 12.4987 14.833 12.7209 14.833 12.9987C14.833 13.2765 14.7427 13.5056 14.5622 13.6862C14.3816 13.8668 14.1525 13.957 13.8747 13.957H8.49967C8.16634 13.957 7.88162 13.8459 7.64551 13.6237C7.4094 13.4015 7.29134 13.1098 7.29134 12.7487V7.41536C7.29134 7.13759 7.38162 6.90842 7.56217 6.72786C7.74273 6.54731 7.9719 6.45703 8.24967 6.45703C8.52745 6.45703 8.75662 6.54731 8.93717 6.72786C9.11773 6.90842 9.20801 7.13759 9.20801 7.41536V10.7904C10.5691 9.23481 12.1733 8.01953 14.0205 7.14453C15.8677 6.26953 17.8191 5.83203 19.8747 5.83203ZM23.5413 24.707L19.458 20.707C19.3191 20.5959 19.2219 20.464 19.1663 20.3112C19.1108 20.1584 19.083 19.9987 19.083 19.832V12.4987C19.083 12.2487 19.1733 12.0334 19.3538 11.8529C19.5344 11.6723 19.7636 11.582 20.0413 11.582C20.3191 11.582 20.5483 11.6723 20.7288 11.8529C20.9094 12.0334 20.9997 12.2487 20.9997 12.4987V19.5404L24.5413 23.0404L23.5413 24.707ZM19.6247 34.1654C16.0136 34.1098 12.9094 32.8668 10.3122 30.4362C7.71495 28.0056 6.24967 25.0404 5.91634 21.5404C5.86079 21.2626 5.91634 21.0195 6.08301 20.8112C6.24967 20.6029 6.4719 20.4848 6.74967 20.457C6.99967 20.4293 7.21495 20.5056 7.39551 20.6862C7.57606 20.8668 7.69412 21.0681 7.74967 21.2904C8.11079 24.3737 9.40245 26.957 11.6247 29.0404C13.8469 31.1237 16.4997 32.1931 19.583 32.2487H19.9163L21.0413 34.082C20.8191 34.1098 20.59 34.1306 20.3538 34.1445C20.1177 34.1584 19.8747 34.1654 19.6247 34.1654ZM30.9163 36.832C30.3608 36.7209 29.833 36.5265 29.333 36.2487C28.833 35.9709 28.3886 35.6237 27.9997 35.207L26.2913 35.6237C26.1802 35.6515 26.0691 35.6445 25.958 35.6029C25.8469 35.5612 25.7636 35.4848 25.708 35.3737L25.4163 34.8737C25.333 34.7626 25.3052 34.6515 25.333 34.5404C25.3608 34.4293 25.4163 34.3181 25.4997 34.207L26.958 32.9154C26.8191 32.4709 26.7497 32.0195 26.7497 31.5612C26.7497 31.1029 26.8191 30.6515 26.958 30.207L25.4997 28.8737C25.3886 28.7904 25.3261 28.6862 25.3122 28.5612C25.2983 28.4362 25.3191 28.3181 25.3747 28.207L25.6663 27.707C25.7219 27.5681 25.8122 27.4779 25.9372 27.4362C26.0622 27.3945 26.1802 27.3876 26.2913 27.4154L27.9997 27.9154C28.4163 27.4709 28.8677 27.1168 29.3538 26.8529C29.8399 26.589 30.3608 26.4015 30.9163 26.2904L31.1663 24.2904C31.1941 24.1793 31.2636 24.0751 31.3747 23.9779C31.4858 23.8806 31.5969 23.832 31.708 23.832H32.333C32.4719 23.832 32.5899 23.8806 32.6872 23.9779C32.7844 24.0751 32.8469 24.1793 32.8747 24.2904L33.1663 26.2904C33.7219 26.4015 34.2497 26.589 34.7497 26.8529C35.2497 27.1168 35.6941 27.4709 36.083 27.9154L37.833 27.4987C37.9441 27.4709 38.0622 27.4779 38.1872 27.5195C38.3122 27.5612 38.4025 27.6376 38.458 27.7487L38.7497 28.2487C38.8052 28.3876 38.8261 28.5126 38.8122 28.6237C38.7983 28.7348 38.7358 28.832 38.6247 28.9154L37.1247 30.2487C37.2636 30.6654 37.333 31.1029 37.333 31.5612C37.333 32.0195 37.2636 32.457 37.1247 32.8737L38.6663 34.207C38.7497 34.3181 38.8052 34.4293 38.833 34.5404C38.8608 34.6515 38.833 34.7626 38.7497 34.8737L38.4997 35.3737C38.4441 35.4848 38.3608 35.5612 38.2497 35.6029C38.1386 35.6445 38.0136 35.6515 37.8747 35.6237L36.083 35.1654C35.6941 35.6098 35.2497 35.9709 34.7497 36.2487C34.2497 36.5265 33.7219 36.7209 33.1663 36.832L32.8747 38.832C32.8469 38.9431 32.7844 39.0473 32.6872 39.1445C32.5899 39.2418 32.4719 39.2904 32.333 39.2904H31.708C31.5969 39.2904 31.4858 39.2418 31.3747 39.1445C31.2636 39.0473 31.1941 38.9431 31.1663 38.832L30.9163 36.832ZM32.0413 35.0404C33.0413 35.0404 33.8677 34.714 34.5205 34.0612C35.1733 33.4084 35.4997 32.5681 35.4997 31.5404C35.4997 30.5404 35.1733 29.714 34.5205 29.0612C33.8677 28.4084 33.0413 28.082 32.0413 28.082C31.0413 28.082 30.2149 28.4084 29.5622 29.0612C28.9094 29.714 28.583 30.5404 28.583 31.5404C28.583 32.5681 28.9094 33.4084 29.5622 34.0612C30.2149 34.714 31.0413 35.0404 32.0413 35.0404Z" fill="#0F191E"/>
</svg>
